<svg width="44" height="44" viewBox="0 0 44 44" fill="none" xmlns="http://www.w3.org/2000/svg">
<ellipse cx="22" cy="22" rx="22" ry="22" fill="#050505"/>
<path d="M16.5999 22.7101C16.5061 22.6171 16.4317 22.5065 16.381 22.3847C16.3302 22.2628 16.3041 22.1321 16.3041 22.0001C16.3041 21.8681 16.3302 21.7374 16.381 21.6155C16.4317 21.4936 16.5061 21.383 16.5999 21.2901L21.1899 16.7101C21.2836 16.6171 21.358 16.5065 21.4088 16.3846C21.4595 16.2628 21.4857 16.1321 21.4857 16.0001C21.4857 15.868 21.4595 15.7373 21.4088 15.6155C21.358 15.4936 21.2836 15.383 21.1899 15.2901C21.0025 15.1038 20.749 14.9993 20.4849 14.9993C20.2207 14.9993 19.9672 15.1038 19.7799 15.2901L15.1899 19.8801C14.6281 20.4426 14.3125 21.2051 14.3125 22.0001C14.3125 22.7951 14.6281 23.5576 15.1899 24.1201L19.7799 28.7101C19.9661 28.8948 20.2175 28.999 20.4799 29.0001C20.6115 29.0008 20.7419 28.9756 20.8638 28.9259C20.9856 28.8761 21.0964 28.8028 21.1899 28.7101C21.2836 28.6171 21.358 28.5065 21.4088 28.3847C21.4595 28.2628 21.4857 28.1321 21.4857 28.0001C21.4857 27.8681 21.4595 27.7374 21.4088 27.6155C21.358 27.4936 21.2836 27.383 21.1899 27.2901L16.5999 22.7101Z" fill="#F8F8F8" fill-opacity="0.5"/>
<path d="M23.5999 22.7101C23.5061 22.6171 23.4317 22.5065 23.381 22.3847C23.3302 22.2628 23.3041 22.1321 23.3041 22.0001C23.3041 21.8681 23.3302 21.7374 23.381 21.6155C23.4317 21.4936 23.5061 21.383 23.5999 21.2901L28.1899 16.7101C28.2836 16.6171 28.358 16.5065 28.4088 16.3846C28.4595 16.2628 28.4857 16.1321 28.4857 16.0001C28.4857 15.868 28.4595 15.7373 28.4088 15.6155C28.358 15.4936 28.2836 15.383 28.1899 15.2901C28.0025 15.1038 27.749 14.9993 27.4849 14.9993C27.2207 14.9993 26.9672 15.1038 26.7799 15.2901L22.1899 19.8801C21.6281 20.4426 21.3125 21.2051 21.3125 22.0001C21.3125 22.7951 21.6281 23.5576 22.1899 24.1201L26.7799 28.7101C26.9661 28.8948 27.2175 28.999 27.4799 29.0001C27.6115 29.0008 27.7419 28.9756 27.8638 28.9259C27.9856 28.8761 28.0964 28.8028 28.1899 28.7101C28.2836 28.6171 28.358 28.5065 28.4088 28.3847C28.4595 28.2628 28.4857 28.1321 28.4857 28.0001C28.4857 27.8681 28.4595 27.7374 28.4088 27.6155C28.358 27.4936 28.2836 27.383 28.1899 27.2901L23.5999 22.7101Z" fill="#F8F8F8" fill-opacity="0.5"/>
</svg>
